<svg xmlns="http://www.w3.org/2000/svg" xmlns:xlink="http://www.w3.org/1999/xlink" width="1000" zoomAndPan="magnify" viewBox="0 0 750 749.999995" height="1000" preserveAspectRatio="xMidYMid meet" version="1.0"><defs><g/><clipPath id="18357e2473"><path d="M 15.394531 14.644531 L 736.105469 14.644531 L 736.105469 735.355469 L 15.394531 735.355469 Z M 15.394531 14.644531 " clip-rule="nonzero"/></clipPath><clipPath id="28a39f830e"><path d="M 375.75 14.644531 C 176.730469 14.644531 15.394531 175.980469 15.394531 375 C 15.394531 574.019531 176.730469 735.355469 375.75 735.355469 C 574.769531 735.355469 736.105469 574.019531 736.105469 375 C 736.105469 175.980469 574.769531 14.644531 375.75 14.644531 Z M 375.75 14.644531 " clip-rule="nonzero"/></clipPath><clipPath id="f2f220a690"><path d="M 0.394531 0.644531 L 721.105469 0.644531 L 721.105469 721.355469 L 0.394531 721.355469 Z M 0.394531 0.644531 " clip-rule="nonzero"/></clipPath><clipPath id="28729ce5a3"><path d="M 360.75 0.644531 C 161.730469 0.644531 0.394531 161.980469 0.394531 361 C 0.394531 560.019531 161.730469 721.355469 360.75 721.355469 C 559.769531 721.355469 721.105469 560.019531 721.105469 361 C 721.105469 161.980469 559.769531 0.644531 360.75 0.644531 Z M 360.75 0.644531 " clip-rule="nonzero"/></clipPath><clipPath id="55a6faedf2"><rect x="0" width="722" y="0" height="722"/></clipPath><clipPath id="883e1cd0b6"><rect x="0" width="490" y="0" height="364"/></clipPath></defs><g clip-path="url(#18357e2473)"><g clip-path="url(#28a39f830e)"><g transform="matrix(1, 0, 0, 1, 15, 14)"><g clip-path="url(#55a6faedf2)"><g clip-path="url(#f2f220a690)"><g clip-path="url(#28729ce5a3)"><path fill="#1f024f" d="M 0.394531 0.644531 L 721.105469 0.644531 L 721.105469 721.355469 L 0.394531 721.355469 Z M 0.394531 0.644531 " fill-opacity="1" fill-rule="nonzero"/></g></g></g></g></g></g><g transform="matrix(1, 0, 0, 1, 107, 163)"><g clip-path="url(#883e1cd0b6)"><g fill="#c393d4" fill-opacity="1"><g transform="translate(1.363742, 274.477971)"><g><path d="M 20.09375 -171.59375 L 52.453125 -171.59375 L 52.453125 -30.890625 L 130.40625 -30.890625 L 130.40625 0 L 20.09375 0 Z M 20.09375 -171.59375 "/></g></g></g><g fill="#c393d4" fill-opacity="1"><g transform="translate(163.884268, 274.477971)"><g><path d="M 14.953125 -171.59375 L 47.3125 -171.59375 L 47.3125 -101.484375 L 102.703125 -101.484375 L 102.703125 -171.59375 L 135.0625 -171.59375 L 135.0625 0 L 102.703125 0 L 102.703125 -70.59375 L 47.3125 -70.59375 L 47.3125 0 L 14.953125 0 Z M 14.953125 -171.59375 "/></g></g></g><g fill="#c393d4" fill-opacity="1"><g transform="translate(326.404794, 274.477971)"><g><path d="M 75.5 -25.984375 C 81.707031 -25.984375 86.8125 -26.921875 90.8125 -28.796875 C 94.820312 -30.679688 97.925781 -33.21875 100.125 -36.40625 C 102.332031 -39.59375 103.84375 -43.269531 104.65625 -47.4375 C 105.476562 -51.601562 105.890625 -55.890625 105.890625 -60.296875 L 105.890625 -64.71875 L 138.25 -64.71875 L 138.25 -60.296875 C 138.25 -39.867188 132.894531 -24.140625 122.1875 -13.109375 C 111.488281 -2.078125 95.925781 3.4375 75.5 3.4375 C 55.882812 3.4375 40.359375 -2.523438 28.921875 -14.453125 C 17.484375 -26.390625 11.765625 -43.796875 11.765625 -66.671875 L 11.765625 -104.90625 C 11.765625 -115.863281 13.234375 -125.710938 16.171875 -134.453125 C 19.117188 -143.191406 23.367188 -150.539062 28.921875 -156.5 C 34.484375 -162.46875 41.1875 -167.046875 49.03125 -170.234375 C 56.875 -173.421875 65.695312 -175.015625 75.5 -175.015625 C 85.632812 -175.015625 94.625 -173.539062 102.46875 -170.59375 C 110.3125 -167.65625 116.882812 -163.410156 122.1875 -157.859375 C 127.5 -152.304688 131.503906 -145.609375 134.203125 -137.765625 C 136.898438 -129.921875 138.25 -121.09375 138.25 -111.28125 L 138.25 -106.875 L 105.890625 -106.875 L 105.890625 -111.28125 C 105.890625 -115.375 105.398438 -119.460938 104.421875 -123.546875 C 103.441406 -127.628906 101.804688 -131.300781 99.515625 -134.5625 C 97.234375 -137.832031 94.128906 -140.488281 90.203125 -142.53125 C 86.285156 -144.582031 81.382812 -145.609375 75.5 -145.609375 C 70.101562 -145.609375 65.441406 -144.582031 61.515625 -142.53125 C 57.597656 -140.488281 54.332031 -137.710938 51.71875 -134.203125 C 49.101562 -130.691406 47.179688 -126.609375 45.953125 -121.953125 C 44.734375 -117.296875 44.125 -112.429688 44.125 -107.359375 L 44.125 -64.21875 C 44.125 -58.664062 44.691406 -53.5625 45.828125 -48.90625 C 46.972656 -44.25 48.769531 -40.203125 51.21875 -36.765625 C 53.675781 -33.335938 56.90625 -30.679688 60.90625 -28.796875 C 64.914062 -26.921875 69.78125 -25.984375 75.5 -25.984375 Z M 75.5 -25.984375 "/></g></g></g></g></g><g fill="#f1ebf6" fill-opacity="1"><g transform="translate(407.295422, 529.326642)"><g><path d="M 17.15625 -69.390625 L 25.46875 -69.390625 L 12.390625 -7.734375 L 48.078125 -7.734375 L 48.078125 0 L 2.375 0 Z M 17.15625 -69.390625 "/></g></g></g><g fill="#f1ebf6" fill-opacity="1"><g transform="translate(473.01046, 529.326642)"><g><path d="M 34.390625 -7.734375 C 32.347656 -4.234375 29.921875 -1.835938 27.109375 -0.546875 C 24.296875 0.742188 21.335938 1.390625 18.234375 1.390625 C 15.597656 1.390625 13.222656 0.910156 11.109375 -0.046875 C 8.992188 -1.003906 7.207031 -2.34375 5.75 -4.0625 C 4.289062 -5.78125 3.164062 -7.84375 2.375 -10.25 C 1.582031 -12.664062 1.1875 -15.328125 1.1875 -18.234375 C 1.1875 -22.398438 1.78125 -26.429688 2.96875 -30.328125 C 4.164062 -34.234375 5.898438 -37.671875 8.171875 -40.640625 C 10.453125 -43.617188 13.273438 -46.015625 16.640625 -47.828125 C 20.015625 -49.640625 23.914062 -50.546875 28.34375 -50.546875 C 31.71875 -50.546875 34.59375 -49.769531 36.96875 -48.21875 C 39.351562 -46.664062 40.90625 -44.40625 41.625 -41.4375 L 42.828125 -41.4375 L 44.40625 -49.171875 L 52.140625 -49.171875 L 43.421875 -8.328125 C 43.285156 -7.734375 43.347656 -7.285156 43.609375 -6.984375 C 43.878906 -6.691406 44.242188 -6.546875 44.703125 -6.546875 C 45.171875 -6.546875 45.632812 -6.707031 46.09375 -7.03125 L 49.65625 -9.609375 L 53.828125 -3.765625 L 49.359375 -0.390625 C 48.640625 0.128906 47.734375 0.554688 46.640625 0.890625 C 45.546875 1.222656 44.4375 1.390625 43.3125 1.390625 C 42.320312 1.390625 41.363281 1.253906 40.4375 0.984375 C 39.519531 0.722656 38.679688 0.3125 37.921875 -0.25 C 37.160156 -0.8125 36.546875 -1.535156 36.078125 -2.421875 C 35.617188 -3.316406 35.390625 -4.425781 35.390625 -5.75 C 35.390625 -6.082031 35.40625 -6.410156 35.4375 -6.734375 C 35.46875 -7.066406 35.515625 -7.398438 35.578125 -7.734375 Z M 20.625 -5.953125 C 23.257812 -5.953125 25.75 -6.5625 28.09375 -7.78125 C 30.445312 -9 32.5 -10.664062 34.25 -12.78125 C 36 -14.894531 37.367188 -17.390625 38.359375 -20.265625 C 39.347656 -23.140625 39.84375 -26.265625 39.84375 -29.640625 C 39.84375 -33.734375 38.914062 -37.019531 37.0625 -39.5 C 35.21875 -41.976562 32.347656 -43.21875 28.453125 -43.21875 C 25.347656 -43.21875 22.617188 -42.554688 20.265625 -41.234375 C 17.921875 -39.910156 15.921875 -38.140625 14.265625 -35.921875 C 12.617188 -33.710938 11.378906 -31.15625 10.546875 -28.25 C 9.722656 -25.34375 9.3125 -22.335938 9.3125 -19.234375 C 9.3125 -14.867188 10.269531 -11.5625 12.1875 -9.3125 C 14.101562 -7.070312 16.914062 -5.953125 20.625 -5.953125 Z M 20.625 -5.953125 "/></g></g></g><g fill="#f1ebf6" fill-opacity="1"><g transform="translate(538.725499, 529.326642)"><g><path d="M 26.171875 -70.78125 L 19.921875 -41.4375 L 21.109375 -41.4375 C 22.960938 -44.144531 25.34375 -46.335938 28.25 -48.015625 C 31.15625 -49.703125 34.554688 -50.546875 38.453125 -50.546875 C 41.035156 -50.546875 43.429688 -50.097656 45.640625 -49.203125 C 47.859375 -48.316406 49.757812 -47.03125 51.34375 -45.34375 C 52.925781 -43.664062 54.179688 -41.648438 55.109375 -39.296875 C 56.035156 -36.953125 56.5 -34.359375 56.5 -31.515625 C 56.5 -26.429688 55.769531 -21.875 54.3125 -17.84375 C 52.863281 -13.8125 50.882812 -10.359375 48.375 -7.484375 C 45.863281 -4.609375 42.90625 -2.410156 39.5 -0.890625 C 36.09375 0.628906 32.441406 1.390625 28.546875 1.390625 C 25.441406 1.390625 22.5 0.644531 19.71875 -0.84375 C 16.945312 -2.332031 15.035156 -4.5625 13.984375 -7.53125 L 12.78125 -7.53125 L 11.203125 0 L 3.5625 0 L 18.53125 -70.78125 Z M 28.34375 -5.953125 C 31.050781 -5.953125 33.628906 -6.53125 36.078125 -7.6875 C 38.523438 -8.84375 40.65625 -10.476562 42.46875 -12.59375 C 44.289062 -14.707031 45.726562 -17.25 46.78125 -20.21875 C 47.84375 -23.195312 48.375 -26.46875 48.375 -30.03125 C 48.375 -34.0625 47.300781 -37.265625 45.15625 -39.640625 C 43.007812 -42.023438 39.953125 -43.21875 35.984375 -43.21875 C 33.078125 -43.21875 30.398438 -42.585938 27.953125 -41.328125 C 25.503906 -40.078125 23.390625 -38.359375 21.609375 -36.171875 C 19.828125 -33.992188 18.4375 -31.484375 17.4375 -28.640625 C 16.445312 -25.804688 15.953125 -22.800781 15.953125 -19.625 C 15.953125 -15.257812 17.039062 -11.890625 19.21875 -9.515625 C 21.40625 -7.140625 24.445312 -5.953125 28.34375 -5.953125 Z M 28.34375 -5.953125 "/></g></g></g><g fill="#f1ebf6" fill-opacity="1"><g transform="translate(604.440538, 529.326642)"><g><path d="M 33.3125 -43.609375 C 31.988281 -43.609375 30.613281 -43.441406 29.1875 -43.109375 C 27.769531 -42.785156 26.484375 -42.289062 25.328125 -41.625 C 24.171875 -40.96875 23.226562 -40.125 22.5 -39.09375 C 21.769531 -38.070312 21.40625 -36.867188 21.40625 -35.484375 C 21.40625 -33.367188 22.347656 -31.78125 24.234375 -30.71875 C 26.117188 -29.664062 29.375 -28.972656 34 -28.640625 C 38.757812 -28.316406 42.441406 -27.128906 45.046875 -25.078125 C 47.660156 -23.023438 48.96875 -20.019531 48.96875 -16.0625 C 48.96875 -13.28125 48.390625 -10.800781 47.234375 -8.625 C 46.078125 -6.445312 44.472656 -4.613281 42.421875 -3.125 C 40.378906 -1.632812 37.953125 -0.507812 35.140625 0.25 C 32.328125 1.007812 29.238281 1.390625 25.875 1.390625 C 22.5 1.390625 19.640625 0.941406 17.296875 0.046875 C 14.953125 -0.835938 13.019531 -2.023438 11.5 -3.515625 C 9.976562 -5.003906 8.867188 -6.691406 8.171875 -8.578125 C 7.484375 -10.460938 7.140625 -12.394531 7.140625 -14.375 C 7.140625 -14.707031 7.140625 -15.050781 7.140625 -15.40625 C 7.140625 -15.769531 7.171875 -16.117188 7.234375 -16.453125 L 14.96875 -17.453125 C 14.90625 -16.921875 14.875 -16.585938 14.875 -16.453125 C 14.875 -16.316406 14.875 -16.117188 14.875 -15.859375 C 14.875 -14.398438 15.085938 -13.0625 15.515625 -11.84375 C 15.941406 -10.625 16.648438 -9.566406 17.640625 -8.671875 C 18.628906 -7.773438 19.914062 -7.0625 21.5 -6.53125 C 23.09375 -6.007812 25.046875 -5.75 27.359375 -5.75 C 28.878906 -5.75 30.445312 -5.929688 32.0625 -6.296875 C 33.6875 -6.660156 35.15625 -7.222656 36.46875 -7.984375 C 37.789062 -8.742188 38.878906 -9.703125 39.734375 -10.859375 C 40.597656 -12.015625 41.03125 -13.414062 41.03125 -15.0625 C 41.03125 -17.644531 39.988281 -19.378906 37.90625 -20.265625 C 35.832031 -21.160156 32.742188 -21.773438 28.640625 -22.109375 C 23.953125 -22.429688 20.269531 -23.550781 17.59375 -25.46875 C 14.914062 -27.382812 13.578125 -30.394531 13.578125 -34.5 C 13.578125 -36.8125 14.070312 -38.957031 15.0625 -40.9375 C 16.050781 -42.914062 17.453125 -44.613281 19.265625 -46.03125 C 21.085938 -47.457031 23.269531 -48.566406 25.8125 -49.359375 C 28.363281 -50.148438 31.191406 -50.546875 34.296875 -50.546875 C 37.335938 -50.546875 39.960938 -50.132812 42.171875 -49.3125 C 44.390625 -48.488281 46.207031 -47.414062 47.625 -46.09375 C 49.050781 -44.769531 50.109375 -43.265625 50.796875 -41.578125 C 51.492188 -39.898438 51.84375 -38.164062 51.84375 -36.375 L 51.84375 -35.28125 L 44.203125 -34.203125 L 44.203125 -34.59375 C 44.203125 -34.726562 44.21875 -34.84375 44.25 -34.9375 C 44.289062 -35.039062 44.3125 -35.15625 44.3125 -35.28125 C 44.3125 -37.800781 43.367188 -39.816406 41.484375 -41.328125 C 39.597656 -42.847656 36.875 -43.609375 33.3125 -43.609375 Z M 33.3125 -43.609375 "/></g></g></g></svg>